<svg width="58" height="106" viewBox="0 0 58 106" fill="none" xmlns="http://www.w3.org/2000/svg">
<g style="mix-blend-mode:overlay">
<path d="M41.4752 105.863H16.5098C14.6783 105.866 12.8989 105.253 11.4586 104.122C10.0182 102.99 9.00071 101.407 8.57008 99.6268L3.53507 78.9836C3.48964 78.7974 3.48712 78.6033 3.52769 78.4159C3.56827 78.2286 3.65088 78.0529 3.76929 77.9022C3.8877 77.7514 4.03882 77.6295 4.21122 77.5457C4.38363 77.4619 4.57282 77.4184 4.76451 77.4185H53.2207C53.4124 77.4184 53.6016 77.4619 53.774 77.5457C53.9464 77.6295 54.0975 77.7514 54.2159 77.9022C54.3343 78.0529 54.4169 78.2286 54.4575 78.4159C54.4981 78.6033 54.4956 78.7974 54.4501 78.9836L49.4151 99.6268C48.9844 101.407 47.9669 102.99 46.5265 104.122C45.0861 105.253 43.3067 105.866 41.4752 105.863ZM6.37544 79.949L11.0285 99.0271C11.3259 100.256 12.0283 101.349 13.0227 102.13C14.017 102.911 15.2454 103.334 16.5098 103.332H41.4752C42.7396 103.334 43.968 102.911 44.9623 102.13C45.9567 101.349 46.6591 100.256 46.9564 99.0271L51.6098 79.949H6.37544Z" fill="white"/>
<path d="M53.8 79.949H4.18508C3.07241 79.9411 2.008 79.4936 1.22399 78.704C0.439985 77.9144 0 76.8469 0 75.7342C0 74.6215 0.439985 73.5539 1.22399 72.7644C2.008 71.9748 3.07241 71.5273 4.18508 71.5194H53.8C54.9127 71.5273 55.9771 71.9748 56.7611 72.7644C57.5451 73.5539 57.9851 74.6215 57.9851 75.7342C57.9851 76.8469 57.5451 77.9144 56.7611 78.704C55.9771 79.4936 54.9127 79.9411 53.8 79.949ZM4.18508 74.0498C3.73837 74.0498 3.30996 74.2272 2.99409 74.5431C2.67822 74.859 2.50077 75.2874 2.50077 75.7341C2.50077 76.1808 2.67822 76.6092 2.99409 76.9251C3.30996 77.2409 3.73837 77.4184 4.18508 77.4184H53.8C54.2435 77.4134 54.667 77.2338 54.9788 76.9185C55.2906 76.6032 55.4655 76.1776 55.4655 75.7342C55.4655 75.2907 55.2906 74.8652 54.9788 74.5499C54.667 74.2346 54.2435 74.0549 53.8 74.05L4.18508 74.0498ZM1.27154 29.1902C1.25488 29.1902 1.23843 29.19 1.22177 29.1891C0.886484 29.1762 0.570071 29.0306 0.342123 28.7844C0.114175 28.5381 -0.00664115 28.2115 0.00624736 27.8762C0.0345055 27.1432 0.0899687 26.4156 0.170736 25.7136C0.188878 25.5478 0.23961 25.3873 0.320017 25.2412C0.400423 25.0951 0.508917 24.9663 0.639261 24.8623C0.769604 24.7582 0.919223 24.681 1.07952 24.635C1.23981 24.589 1.40762 24.5752 1.57329 24.5942C1.73896 24.6133 1.89922 24.665 2.04486 24.7462C2.1905 24.8274 2.31865 24.9367 2.42193 25.0676C2.52521 25.1985 2.60159 25.3486 2.64668 25.5091C2.69177 25.6697 2.70468 25.8376 2.68466 26.0031C2.60988 26.6579 2.55993 27.3153 2.53493 27.9738C2.52229 28.3005 2.38368 28.6096 2.14816 28.8364C1.91263 29.0631 1.59848 29.1899 1.27154 29.1902Z" fill="white"/>
<path d="M28.9925 58.0156C21.8872 58.0199 15.0278 55.4147 9.7168 50.6946C4.40584 45.9745 1.01327 39.4683 0.183351 32.4117C0.144424 32.0784 0.239499 31.7432 0.447659 31.48C0.65582 31.2168 0.960015 31.0471 1.29333 31.0081C1.62664 30.9692 1.96176 31.0643 2.22497 31.2724C2.48818 31.4806 2.65792 31.7848 2.69685 32.1181C3.47279 38.643 6.64851 44.6458 11.606 48.9585C16.5635 53.2712 22.9482 55.5852 29.5177 55.4503C36.0872 55.3154 42.3715 52.7412 47.1478 48.2286C51.924 43.7161 54.8506 37.5879 55.3581 31.0367C55.8655 24.4855 53.9174 17.9798 49.893 12.7856C45.8685 7.59134 40.0555 4.08016 33.5852 2.93526C27.1149 1.79037 20.45 3.09365 14.8875 6.5915C9.32506 10.0894 5.26287 15.5316 3.49145 21.8591C3.39858 22.1794 3.183 22.4501 2.89162 22.6123C2.60023 22.7745 2.25659 22.8151 1.93542 22.7253C1.61425 22.6355 1.34154 22.4225 1.17657 22.1327C1.01161 21.8428 0.967739 21.4996 1.0545 21.1776C2.77593 15.0903 6.43442 9.72991 11.4758 5.90849C16.5171 2.08706 22.6665 0.0128193 28.9925 0C44.9875 0 58.0004 13.0129 58.0004 29.008C58.0004 45.0032 44.9875 58.0156 28.9925 58.0156Z" fill="white"/>
<path d="M28.9927 51.3575C24.5723 51.3575 20.2511 50.0467 16.5757 47.5909C12.9002 45.1351 10.0355 41.6445 8.34391 37.5606C6.65228 33.4767 6.20966 28.9829 7.07202 24.6474C7.93439 20.3119 10.063 16.3295 13.1887 13.2039C16.3144 10.0782 20.2968 7.94953 24.6323 7.08716C28.9677 6.22479 33.4616 6.66741 37.5455 8.35905C41.6294 10.0507 45.12 12.9154 47.5758 16.5908C50.0316 20.2663 51.3424 24.5874 51.3423 29.0078C51.3356 34.9332 48.9787 40.614 44.7888 44.8039C40.5989 48.9939 34.9181 51.3507 28.9927 51.3575ZM28.9927 9.18852C25.0728 9.18847 21.2409 10.3508 17.9816 12.5286C14.7223 14.7063 12.182 17.8016 10.6819 21.4231C9.18178 25.0446 8.78926 29.0296 9.55396 32.8742C10.3187 36.7188 12.2063 40.2503 14.978 43.0221C17.7498 45.7939 21.2813 47.6815 25.1258 48.4463C28.9704 49.211 32.9554 48.8185 36.5769 47.3185C40.1984 45.8184 43.2938 43.2781 45.4716 40.0188C47.6494 36.7596 48.8117 32.9277 48.8117 29.0078C48.8058 23.7533 46.7159 18.7156 43.0004 15.0001C39.2848 11.2845 34.2472 9.19449 28.9927 9.18852Z" fill="white"/>
<path d="M28.9928 74.0627C28.6573 74.0627 28.3354 73.9294 28.0981 73.6921C27.8608 73.4548 27.7275 73.133 27.7275 72.7974V58.0983C27.7275 57.7627 27.8608 57.4409 28.0981 57.2036C28.3354 56.9663 28.6573 56.833 28.9928 56.833C29.3284 56.833 29.6502 56.9663 29.8875 57.2036C30.1248 57.4409 30.2581 57.7627 30.2581 58.0983V72.7974C30.2581 73.133 30.1248 73.4548 29.8875 73.6921C29.6502 73.9294 29.3284 74.0627 28.9928 74.0627Z" fill="white"/>
</g>
<g style="mix-blend-mode:overlay">
<path d="M37 17.697C37 17.3137 36.6891 17 36.3092 17H21.6908C21.3109 17 21 17.3137 21 17.697C21 18.0804 21.3109 18.394 21.6908 18.394H25.8774C28.7237 18.394 31.0725 20.5547 31.4111 23.2731H21.6908C21.3109 23.2731 21 23.5867 21 23.9701C21 24.3534 21.3109 24.6671 21.6908 24.6671H31.4111C31.0656 27.49 28.6891 29.6089 25.8774 29.6158H21.6978C21.3109 29.6228 21 29.9434 21.0069 30.3337C21.0069 30.5219 21.0898 30.7032 21.2211 30.8356L31.6736 40.8098C31.9499 41.0746 32.3851 41.0607 32.6477 40.7819C32.9102 40.4961 32.8964 40.057 32.62 39.7852L23.4249 31.0098H25.8705C29.4767 31.0098 32.4542 28.2218 32.7997 24.6671H36.3092C36.6891 24.6671 37 24.3534 37 23.9701C37 23.5867 36.6891 23.2731 36.3092 23.2731H32.7997C32.5993 21.3214 31.5561 19.5092 30.0294 18.394H36.3092C36.6891 18.394 37 18.0804 37 17.697Z" fill="white"/>
</g>
</svg>
