<svg width="81" height="97" viewBox="0 0 81 97" fill="none" xmlns="http://www.w3.org/2000/svg">
<g style="mix-blend-mode:overlay" opacity="0.6">
<path d="M40.4559 0.000284902V0.00774652C40.3003 0.0103306 40.1457 0.0328926 39.9957 0.0748953L1.33671 11.2666C0.952273 11.3775 0.613932 11.6123 0.372815 11.9354C0.131699 12.2584 0.00091212 12.6522 0.000220524 13.0572V59.6892C-0.0550066 73.6788 10.2725 83.0798 20.2134 88.8248C30.1616 94.5774 40.0767 96.95 40.0767 96.95C40.3551 97.0167 40.6451 97.0167 40.9235 96.95C40.9235 96.95 50.8092 94.5848 60.7427 88.836C70.6762 83.0761 81 73.6788 81 59.6892V13.0572C80.9993 12.6522 80.8685 12.2584 80.6274 11.9354C80.3863 11.6123 80.048 11.3775 79.6635 11.2666L41.0045 0.0748953C40.8264 0.0221529 40.6415 -0.003001 40.4559 0.000284902ZM40.5001 3.81664L77.3182 14.4786V59.6967C77.3182 71.821 68.3125 80.1513 58.9165 85.5905C49.8593 90.8356 41.1444 93.0329 40.5001 93.1933C39.8558 93.0329 31.1115 90.8393 22.0395 85.5905C12.6325 80.1513 3.63049 71.8322 3.68203 59.7116V14.4935L40.5001 3.83156V3.81664ZM40.4265 22.3986C26.1926 22.3986 14.7275 34.1237 14.7275 48.505C14.7275 62.89 26.1926 74.6189 40.4265 74.6189C54.6603 74.6189 66.2728 62.9049 66.2728 48.505C66.2713 48.2575 66.2212 48.0127 66.1255 47.785C65.7279 33.7432 54.4063 22.3986 40.4265 22.3986ZM40.4265 26.1291C52.6722 26.1291 62.591 36.1382 62.591 48.505C62.591 60.8755 52.6722 70.8883 40.4265 70.8883C37.5277 70.8928 34.6567 70.3163 31.9786 69.1921C29.3006 68.0679 26.8684 66.4181 24.8221 64.3378C22.7757 62.2574 21.1557 59.7876 20.0551 57.0703C18.9545 54.3531 18.3952 51.4421 18.4093 48.505C18.3957 45.5683 18.9554 42.658 20.0562 39.9414C21.1571 37.2248 22.7773 34.7556 24.8236 32.6759C26.8699 30.5962 29.302 28.9472 31.9797 27.8236C34.6575 26.7 37.5282 26.1242 40.4265 26.1291ZM31.395 33.5455V33.5828H31.3103V37.3133H35.0915C38.5267 37.3133 40.2645 38.9622 40.8867 41.0066H31.395V44.7371H40.8867C40.2645 46.7889 38.5303 48.4378 35.0915 48.4378H31.3066V52.1684H32.3965L43.626 63.3899L46.218 60.7412L37.4 51.9222C41.3948 51.0753 43.9573 48.061 44.6642 44.7371H49.6899V41.0066H44.6642C44.3771 39.6636 43.7585 38.3952 42.897 37.276H49.6899V33.5455H31.395Z" fill="white"/>
</g>
</svg>
